<svg xmlns="http://www.w3.org/2000/svg" width="22" height="22" viewBox="0 0 48 48" aria-hidden="true">
  <path fill="#FFC107" d="M43.611 20.083H42V20H24v8h11.303c-1.649 4.657-6.08 8-11.303 8-6.627 0-12-5.373-12-12s5.373-12 12-12c3.059 0 5.842 1.154 7.962 3.036l5.657-5.657C34.046 6.052 29.268 4 24 4 16.318 4 10 10.318 10 18c0 7.682 6.318 14 14 14 11.971 0 14.957-13.097 13.942-27.917H43.611z"/>
  <path fill="#FF3D00" d="M6.306 14.691l6.571 4.818C13.927 17.069 18.577 13 24 13c3.059 0 5.848 1.154 8.036 3.036l6.036-6.036C34.047 6.054 29.268 4 24 4 17.052 4 11.069 8.089 8.065 13.958L6.306 14.691z"/>
  <path fill="#4CAF50" d="M24 44c5.931 0 11.086-3.069 13.957-8.069l-6.522-5.096C29.957 37.069 26.974 40 23 40c-4.957 0-9.173-3.223-10.694-7.694l-6.555 6.055C11.069 43.089 17.065 46 24 46z"/>
  <path fill="#1976D2" d="M43.611 20.083H42V20H24v8h11.303c-.792 2.237-2.231 4.166-4.087 5.571.001-.001.002-.001.003-.002l6.19 5.794C43.095 43.091 43.611 43.092 43.611 43.092V20.083z"/>
</svg>
